<svg width="20" height="20" viewBox="0 0 20 20" fill="none" xmlns="http://www.w3.org/2000/svg">
<path d="M17.955 6.61626C17.7206 6.38192 17.4027 6.25027 17.0713 6.25027C16.7398 6.25027 16.4219 6.38192 16.1875 6.61626L10 12.8038L3.8125 6.61626C3.57675 6.38856 3.26099 6.26257 2.93325 6.26541C2.6055 6.26826 2.29199 6.39972 2.06023 6.63148C1.82847 6.86324 1.69701 7.17676 1.69416 7.50451C1.69131 7.83225 1.8173 8.148 2.045 8.38376L9.11625 15.455C9.35066 15.6893 9.66855 15.821 10 15.821C10.3315 15.821 10.6493 15.6893 10.8838 15.455L17.955 8.38376C18.1893 8.14935 18.321 7.83146 18.321 7.50001C18.321 7.16855 18.1893 6.85067 17.955 6.61626V6.61626Z" fill="black"/>
</svg>
