<svg width="21" height="20" viewBox="0 0 21 20" fill="none" xmlns="http://www.w3.org/2000/svg">
<path d="M18.4549 6.61626C18.2205 6.38192 17.9026 6.25027 17.5712 6.25027C17.2397 6.25027 16.9218 6.38192 16.6874 6.61626L10.4999 12.8038L4.31244 6.61626C4.07669 6.38856 3.76093 6.26257 3.43319 6.26541C3.10544 6.26826 2.79193 6.39972 2.56017 6.63148C2.32841 6.86324 2.19695 7.17676 2.1941 7.50451C2.19125 7.83225 2.31724 8.148 2.54494 8.38376L9.61619 15.455C9.8506 15.6893 10.1685 15.821 10.4999 15.821C10.8314 15.821 11.1493 15.6893 11.3837 15.455L18.4549 8.38376C18.6893 8.14935 18.8209 7.83146 18.8209 7.50001C18.8209 7.16855 18.6893 6.85067 18.4549 6.61626V6.61626Z" fill="black"/>
</svg>
