<svg width="40" height="40" viewBox="0 0 40 40" fill="none" xmlns="http://www.w3.org/2000/svg">
<path d="M24.25 12.9167C24.25 15.2639 22.3472 17.1667 20 17.1667V18.6667C23.1756 18.6667 25.75 16.0923 25.75 12.9167H24.25ZM20 17.1667C17.6528 17.1667 15.75 15.2639 15.75 12.9167H14.25C14.25 16.0923 16.8244 18.6667 20 18.6667V17.1667ZM15.75 12.9167C15.75 10.5695 17.6528 8.66669 20 8.66669V7.16669C16.8244 7.16669 14.25 9.74105 14.25 12.9167H15.75ZM20 8.66669C22.3472 8.66669 24.25 10.5695 24.25 12.9167H25.75C25.75 9.74105 23.1756 7.16669 20 7.16669V8.66669ZM15 23.6667H25V22.1667H15V23.6667ZM25 32.1667H15V33.6667H25V32.1667ZM15 32.1667C12.6528 32.1667 10.75 30.2639 10.75 27.9167H9.25C9.25 31.0923 11.8244 33.6667 15 33.6667V32.1667ZM29.25 27.9167C29.25 30.2639 27.3472 32.1667 25 32.1667V33.6667C28.1756 33.6667 30.75 31.0923 30.75 27.9167H29.25ZM25 23.6667C27.3472 23.6667 29.25 25.5695 29.25 27.9167H30.75C30.75 24.741 28.1756 22.1667 25 22.1667V23.6667ZM15 22.1667C11.8244 22.1667 9.25 24.741 9.25 27.9167H10.75C10.75 25.5695 12.6528 23.6667 15 23.6667V22.1667Z" fill="#2D264B"/>
<path d="M12.9202 17.3144C12.6573 16.8921 12.1641 16.6667 11.6667 16.6667C9.59559 16.6667 7.91666 14.9878 7.91666 12.9167C7.91666 10.8456 9.59559 9.16669 11.6667 9.16669C12.1641 9.16669 12.6573 8.94123 12.9202 8.51893C12.9319 8.50025 12.9435 8.48163 12.9553 8.46305C13.393 7.7722 13.1712 6.79402 12.3583 6.70453C12.1312 6.67952 11.9004 6.66669 11.6667 6.66669C8.21488 6.66669 5.41666 9.46491 5.41666 12.9167C5.41666 16.3685 8.21488 19.1667 11.6667 19.1667C11.9004 19.1667 12.1312 19.1539 12.3583 19.1288C13.1712 19.0394 13.393 18.0612 12.9553 17.3703C12.9436 17.3517 12.9319 17.3331 12.9202 17.3144Z" fill="#2D264B"/>
<path d="M7.84714 30.5281C7.65794 30.2125 7.32398 30 6.95597 30H6.66666C4.59559 30 2.91666 28.3211 2.91666 26.25C2.91666 24.179 4.59559 22.5 6.66666 22.5H6.95597C7.32398 22.5 7.65794 22.2876 7.84714 21.9719C8.30897 21.2014 7.8078 20 6.90948 20H6.66666C3.21488 20 0.416656 22.7982 0.416656 26.25C0.416656 29.7018 3.21488 32.5 6.66666 32.5H6.90948C7.8078 32.5 8.30897 31.2986 7.84714 30.5281Z" fill="#2D264B"/>
<path d="M27.0447 17.3703C26.607 18.0612 26.8287 19.0394 27.6417 19.1288C27.8688 19.1539 28.0995 19.1667 28.3333 19.1667C31.7851 19.1667 34.5833 16.3685 34.5833 12.9167C34.5833 9.46491 31.7851 6.66669 28.3333 6.66669C28.0995 6.66669 27.8688 6.67952 27.6417 6.70453C26.8287 6.79402 26.607 7.7722 27.0447 8.46305C27.0564 8.48162 27.0681 8.50025 27.0798 8.51893C27.3426 8.94123 27.8359 9.16669 28.3333 9.16669C30.4044 9.16669 32.0833 10.8456 32.0833 12.9167C32.0833 14.9878 30.4044 16.6667 28.3333 16.6667C27.8359 16.6667 27.3426 16.8921 27.0798 17.3144C27.0681 17.3331 27.0564 17.3517 27.0447 17.3703Z" fill="#2D264B"/>
<path d="M32.1528 30.5281C31.691 31.2987 32.1922 32.5 33.0905 32.5H33.3333C36.7851 32.5 39.5833 29.7018 39.5833 26.25C39.5833 22.7982 36.7851 20 33.3333 20H33.0905C32.1922 20 31.691 21.2014 32.1528 21.9719C32.342 22.2876 32.676 22.5 33.044 22.5H33.3333C35.4044 22.5 37.0833 24.179 37.0833 26.25C37.0833 28.3211 35.4044 30 33.3333 30H33.044C32.676 30 32.342 30.2125 32.1528 30.5281Z" fill="#2D264B"/>
</svg>
