<svg width="40" height="40" viewBox="0 0 40 40" fill="none" xmlns="http://www.w3.org/2000/svg">
<path d="M5 16.6667C5 14.3655 6.86548 12.5 9.16667 12.5C11.4679 12.5 13.3333 14.3655 13.3333 16.6667V30C13.3333 32.3012 11.4679 34.1667 9.16667 34.1667C6.86548 34.1667 5 32.3012 5 30V16.6667Z" stroke="#2D264B" stroke-width="1.5"/>
<path d="M19.2924 7.81661L15.5748 13.8576C14.5767 15.4796 14.0776 16.2906 13.7758 17.1793C13.6838 17.4504 13.6058 17.726 13.5421 18.0051C13.3333 18.9202 13.3333 19.8724 13.3333 21.7768V27.5C13.3333 31.1819 16.3181 34.1667 20 34.1667H24.8497C28.0062 34.1667 30.8917 32.3833 32.3033 29.5601L34.2175 25.7317C36.1084 21.9498 33.3583 17.5 29.13 17.5H27.9804C25.0988 17.5 22.8952 14.9315 23.3333 12.0834L23.7384 9.45039C23.9636 7.9867 22.8311 6.66669 21.3502 6.66669C20.5111 6.66669 19.7321 7.10199 19.2924 7.81661Z" stroke="#2D264B" stroke-width="1.5"/>
</svg>
