<svg width="40" height="40" viewBox="0 0 40 40" fill="none" xmlns="http://www.w3.org/2000/svg">
<path d="M5 26.6667H4.25H5ZM5.75 25C5.75 24.5858 5.41421 24.25 5 24.25C4.58579 24.25 4.25 24.5858 4.25 25H5.75ZM15 35.75C15.4142 35.75 15.75 35.4142 15.75 35C15.75 34.5858 15.4142 34.25 15 34.25V35.75ZM13.3333 35V34.25V35ZM15 5.75C15.4142 5.75 15.75 5.41421 15.75 5C15.75 4.58579 15.4142 4.25 15 4.25V5.75ZM4.25 15C4.25 15.4142 4.58579 15.75 5 15.75C5.41421 15.75 5.75 15.4142 5.75 15H4.25ZM35 13.3333H34.25H35ZM34.25 15C34.25 15.4142 34.5858 15.75 35 15.75C35.4142 15.75 35.75 15.4142 35.75 15H34.25ZM25 4.25C24.5858 4.25 24.25 4.58579 24.25 5C24.25 5.41421 24.5858 5.75 25 5.75V4.25ZM26.6667 5V4.25V5ZM26.6667 35V34.25V35ZM25 34.25C24.5858 34.25 24.25 34.5858 24.25 35C24.25 35.4142 24.5858 35.75 25 35.75V34.25ZM35.75 25C35.75 24.5858 35.4142 24.25 35 24.25C34.5858 24.25 34.25 24.5858 34.25 25H35.75ZM35 26.6667H35.75H35ZM5.75 26.6667L5.75 25H4.25L4.25 26.6667H5.75ZM15 34.25H13.3333V35.75H15V34.25ZM4.25 26.6667C4.25 31.6833 8.31675 35.75 13.3333 35.75V34.25C9.14518 34.25 5.75 30.8548 5.75 26.6667H4.25ZM13.3333 5.75H15V4.25H13.3333V5.75ZM5.75 15V13.3333H4.25V15H5.75ZM13.3333 4.25C8.31675 4.25 4.25 8.31675 4.25 13.3333H5.75C5.75 9.14517 9.14517 5.75 13.3333 5.75V4.25ZM34.25 13.3333V15H35.75V13.3333H34.25ZM25 5.75L26.6667 5.75V4.25L25 4.25V5.75ZM35.75 13.3333C35.75 8.31675 31.6833 4.25 26.6667 4.25V5.75C30.8548 5.75 34.25 9.14517 34.25 13.3333H35.75ZM26.6667 34.25H25V35.75H26.6667V34.25ZM34.25 25V26.6667H35.75V25H34.25ZM26.6667 35.75C31.6833 35.75 35.75 31.6833 35.75 26.6667H34.25C34.25 30.8548 30.8548 34.25 26.6667 34.25V35.75ZM13.3333 15.9167C12.5265 15.9167 11.9967 15.9151 11.6045 15.8623C11.2338 15.8125 11.1 15.7297 11.0185 15.6482L9.95783 16.7088C10.3645 17.1155 10.8676 17.2768 11.4046 17.349C11.9201 17.4183 12.5689 17.4167 13.3333 17.4167V15.9167ZM9.25 13.3333C9.25 14.0978 9.24841 14.7466 9.31771 15.2621C9.38991 15.7991 9.55117 16.3022 9.95783 16.7088L11.0185 15.6482C10.937 15.5667 10.8542 15.4329 10.8043 15.0622C10.7516 14.6699 10.75 14.1402 10.75 13.3333H9.25ZM15.9167 13.3333C15.9167 14.1402 15.9151 14.6699 15.8623 15.0622C15.8125 15.4329 15.7297 15.5667 15.6482 15.6482L16.7088 16.7088C17.1155 16.3022 17.2768 15.7991 17.349 15.2621C17.4183 14.7466 17.4167 14.0978 17.4167 13.3333H15.9167ZM13.3333 17.4167C14.0978 17.4167 14.7466 17.4183 15.2621 17.349C15.7991 17.2768 16.3022 17.1155 16.7088 16.7088L15.6482 15.6482C15.5667 15.7297 15.4329 15.8125 15.0622 15.8623C14.6699 15.9151 14.1402 15.9167 13.3333 15.9167V17.4167ZM13.3333 10.75C14.1402 10.75 14.6699 10.7516 15.0622 10.8043C15.4329 10.8542 15.5667 10.937 15.6482 11.0185L16.7088 9.95783C16.3022 9.55117 15.7991 9.38991 15.2621 9.31771C14.7466 9.24841 14.0978 9.25 13.3333 9.25V10.75ZM17.4167 13.3333C17.4167 12.5689 17.4183 11.9201 17.349 11.4046C17.2768 10.8676 17.1155 10.3645 16.7088 9.95783L15.6482 11.0185C15.7297 11.1 15.8125 11.2338 15.8623 11.6045C15.9151 11.9967 15.9167 12.5265 15.9167 13.3333H17.4167ZM13.3333 9.25C12.5689 9.25 11.9201 9.24841 11.4046 9.31771C10.8676 9.38991 10.3645 9.55117 9.95783 9.95783L11.0185 11.0185C11.1 10.937 11.2338 10.8542 11.6045 10.8043C11.9967 10.7516 12.5265 10.75 13.3333 10.75V9.25ZM10.75 13.3333C10.75 12.5265 10.7516 11.9967 10.8043 11.6045C10.8542 11.2338 10.937 11.1 11.0185 11.0185L9.95783 9.95783C9.55117 10.3645 9.38991 10.8676 9.31771 11.4046C9.24841 11.9201 9.25 12.5689 9.25 13.3333H10.75ZM13.3333 29.25C12.5265 29.25 11.9967 29.2484 11.6045 29.1957C11.2338 29.1458 11.1 29.063 11.0185 28.9815L9.95783 30.0422C10.3645 30.4488 10.8676 30.6101 11.4046 30.6823C11.9201 30.7516 12.5689 30.75 13.3333 30.75V29.25ZM9.25 26.6667C9.25 27.4311 9.24841 28.0799 9.31771 28.5954C9.38991 29.1324 9.55117 29.6355 9.95783 30.0422L11.0185 28.9815C10.937 28.9 10.8542 28.7662 10.8043 28.3955C10.7516 28.0033 10.75 27.4735 10.75 26.6667H9.25ZM15.9167 26.6667C15.9167 27.4735 15.9151 28.0033 15.8623 28.3955C15.8125 28.7662 15.7297 28.9 15.6482 28.9815L16.7088 30.0422C17.1155 29.6355 17.2768 29.1324 17.349 28.5954C17.4183 28.0799 17.4167 27.4311 17.4167 26.6667H15.9167ZM13.3333 30.75C14.0978 30.75 14.7466 30.7516 15.2621 30.6823C15.7991 30.6101 16.3022 30.4488 16.7088 30.0422L15.6482 28.9815C15.5667 29.063 15.4329 29.1458 15.0622 29.1957C14.6699 29.2484 14.1402 29.25 13.3333 29.25V30.75ZM13.3333 24.0833C14.1402 24.0833 14.6699 24.0849 15.0622 24.1377C15.4329 24.1875 15.5667 24.2703 15.6482 24.3518L16.7088 23.2912C16.3022 22.8845 15.7991 22.7232 15.2621 22.651C14.7466 22.5817 14.0978 22.5833 13.3333 22.5833V24.0833ZM17.4167 26.6667C17.4167 25.9022 17.4183 25.2534 17.349 24.7379C17.2768 24.2009 17.1155 23.6978 16.7088 23.2912L15.6482 24.3518C15.7297 24.4333 15.8125 24.5671 15.8623 24.9378C15.9151 25.3301 15.9167 25.8598 15.9167 26.6667H17.4167ZM13.3333 22.5833C12.5689 22.5833 11.9201 22.5817 11.4046 22.651C10.8676 22.7232 10.3645 22.8845 9.95783 23.2912L11.0185 24.3518C11.1 24.2703 11.2338 24.1875 11.6045 24.1377C11.9967 24.0849 12.5265 24.0833 13.3333 24.0833V22.5833ZM10.75 26.6667C10.75 25.8598 10.7516 25.3301 10.8043 24.9378C10.8542 24.5671 10.937 24.4333 11.0185 24.3518L9.95783 23.2912C9.55117 23.6978 9.38991 24.2009 9.31771 24.7379C9.24841 25.2534 9.25 25.9022 9.25 26.6667H10.75ZM26.6667 29.25C25.8598 29.25 25.3301 29.2484 24.9378 29.1957C24.5671 29.1458 24.4333 29.063 24.3518 28.9815L23.2912 30.0422C23.6978 30.4488 24.2009 30.6101 24.7379 30.6823C25.2534 30.7516 25.9022 30.75 26.6667 30.75V29.25ZM22.5833 26.6667C22.5833 27.4311 22.5817 28.0799 22.651 28.5954C22.7232 29.1324 22.8845 29.6355 23.2912 30.0422L24.3518 28.9815C24.2703 28.9 24.1875 28.7662 24.1377 28.3955C24.0849 28.0033 24.0833 27.4735 24.0833 26.6667H22.5833ZM29.25 26.6667C29.25 27.4735 29.2484 28.0033 29.1957 28.3955C29.1458 28.7662 29.063 28.9 28.9815 28.9815L30.0422 30.0422C30.4488 29.6355 30.6101 29.1324 30.6823 28.5954C30.7516 28.0799 30.75 27.4311 30.75 26.6667H29.25ZM26.6667 30.75C27.4311 30.75 28.0799 30.7516 28.5954 30.6823C29.1324 30.6101 29.6355 30.4488 30.0422 30.0422L28.9815 28.9815C28.9 29.063 28.7662 29.1458 28.3955 29.1957C28.0033 29.2484 27.4735 29.25 26.6667 29.25V30.75ZM26.6667 24.0833C27.4735 24.0833 28.0033 24.0849 28.3955 24.1377C28.7662 24.1875 28.9 24.2703 28.9815 24.3518L30.0422 23.2912C29.6355 22.8845 29.1324 22.7232 28.5954 22.651C28.0799 22.5817 27.4311 22.5833 26.6667 22.5833V24.0833ZM30.75 26.6667C30.75 25.9022 30.7516 25.2534 30.6823 24.7379C30.6101 24.2009 30.4488 23.6978 30.0422 23.2912L28.9815 24.3518C29.063 24.4333 29.1458 24.5671 29.1957 24.9378C29.2484 25.3301 29.25 25.8598 29.25 26.6667H30.75ZM26.6667 22.5833C25.9022 22.5833 25.2534 22.5817 24.7379 22.651C24.2009 22.7232 23.6978 22.8845 23.2912 23.2912L24.3518 24.3518C24.4333 24.2703 24.5671 24.1875 24.9378 24.1377C25.3301 24.0849 25.8598 24.0833 26.6667 24.0833V22.5833ZM24.0833 26.6667C24.0833 25.8598 24.0849 25.3301 24.1377 24.9378C24.1875 24.5671 24.2703 24.4333 24.3518 24.3518L23.2912 23.2912C22.8845 23.6978 22.7232 24.2009 22.651 24.7379C22.5817 25.2534 22.5833 25.9022 22.5833 26.6667H24.0833Z" fill="#2D264B"/>
</svg>
